<svg width="30" height="24" viewBox="0 0 30 24" fill="none" xmlns="http://www.w3.org/2000/svg">
<path d="M28.3334 10.3333C28.8801 10.3333 29.3334 9.87998 29.3334 9.33331V7.99998C29.3334 2.11998 27.5467 0.333313 21.6667 0.333313H13.3334V3.33331C13.3334 3.87998 12.8801 4.33331 12.3334 4.33331C11.7867 4.33331 11.3334 3.87998 11.3334 3.33331V0.333313H8.33341C2.45341 0.333313 0.666748 2.11998 0.666748 7.99998V8.66665C0.666748 9.21331 1.12008 9.66665 1.66675 9.66665C2.94675 9.66665 4.00008 10.72 4.00008 12C4.00008 13.28 2.94675 14.3333 1.66675 14.3333C1.12008 14.3333 0.666748 14.7866 0.666748 15.3333V16C0.666748 21.88 2.45341 23.6666 8.33341 23.6666H11.3334V20.6666C11.3334 20.12 11.7867 19.6666 12.3334 19.6666C12.8801 19.6666 13.3334 20.12 13.3334 20.6666V23.6666H21.6667C27.5467 23.6666 29.3334 21.88 29.3334 16C29.3334 15.4533 28.8801 15 28.3334 15C27.0534 15 26.0001 13.9466 26.0001 12.6666C26.0001 11.3866 27.0534 10.3333 28.3334 10.3333ZM13.3334 14.8933C13.3334 15.44 12.8801 15.8933 12.3334 15.8933C11.7867 15.8933 11.3334 15.44 11.3334 14.8933V9.10665C11.3334 8.55998 11.7867 8.10665 12.3334 8.10665C12.8801 8.10665 13.3334 8.55998 13.3334 9.10665V14.8933Z" fill="url(#paint0_linear_242_1348)"/>
<defs>
<linearGradient id="paint0_linear_242_1348" x1="15.0001" y1="-73.0321" x2="15" y2="23.6666" gradientUnits="userSpaceOnUse">
<stop stop-color="white"/>
<stop offset="1" stop-color="#0075FF"/>
</linearGradient>
</defs>
</svg>
