<svg width="212" height="181" viewBox="0 0 212 181" fill="none" xmlns="http://www.w3.org/2000/svg">
<g clip-path="url(#clip0_223_1078)">
<path d="M162.152 126.1C161.71 126.1 161.284 125.931 160.962 125.628C160.639 125.326 160.444 124.912 160.415 124.471L160.156 120.52C160.126 120.059 160.28 119.604 160.585 119.257C160.89 118.909 161.32 118.697 161.782 118.667L192.731 116.64C193.219 116.607 193.709 116.672 194.172 116.829C194.636 116.986 195.063 117.232 195.431 117.555C195.799 117.877 196.1 118.269 196.316 118.707C196.533 119.146 196.661 119.623 196.693 120.111C196.724 120.599 196.66 121.089 196.503 121.552C196.345 122.015 196.098 122.443 195.775 122.811C195.453 123.178 195.061 123.479 194.622 123.695C194.183 123.911 193.706 124.038 193.218 124.07L162.268 126.096C162.229 126.099 162.191 126.1 162.152 126.1Z" fill="url(#paint0_linear_223_1078)"/>
<path d="M168.255 126.61C167.804 126.609 167.371 126.434 167.046 126.121C166.721 125.808 166.53 125.382 166.513 124.931L166.292 119.031C166.284 118.802 166.321 118.574 166.4 118.359C166.48 118.144 166.601 117.947 166.757 117.78C166.912 117.612 167.1 117.476 167.308 117.381C167.516 117.285 167.741 117.232 167.97 117.223L193.42 116.272C193.882 116.255 194.332 116.422 194.671 116.736C195.01 117.051 195.21 117.487 195.228 117.949L195.448 123.85C195.457 124.079 195.42 124.307 195.341 124.521C195.261 124.736 195.14 124.933 194.984 125.101C194.828 125.269 194.641 125.404 194.433 125.5C194.225 125.595 194 125.648 193.771 125.657L168.32 126.608C168.298 126.609 168.276 126.61 168.255 126.61Z" fill="#2F2E41"/>
<path d="M198.079 181H194.12C193.657 180.999 193.214 180.816 192.887 180.489C192.561 180.162 192.377 179.719 192.376 179.256V146.261C192.377 145.799 192.561 145.356 192.887 145.029C193.214 144.702 193.657 144.518 194.12 144.518H198.079C198.541 144.518 198.984 144.702 199.311 145.029C199.638 145.356 199.821 145.799 199.822 146.261V179.256C199.821 179.719 199.638 180.162 199.311 180.489C198.984 180.816 198.541 180.999 198.079 181Z" fill="#2F2E41"/>
<path d="M188.622 181H184.663C184.201 180.999 183.757 180.816 183.431 180.489C183.104 180.162 182.92 179.719 182.919 179.256V146.261C182.92 145.799 183.104 145.356 183.431 145.029C183.757 144.702 184.201 144.518 184.663 144.518H188.622C189.084 144.518 189.527 144.702 189.854 145.029C190.181 145.356 190.365 145.799 190.365 146.261V179.256C190.365 179.719 190.181 180.162 189.854 180.489C189.527 180.816 189.084 180.999 188.622 181Z" fill="#2F2E41"/>
<path d="M192.066 110.084C199.621 110.084 205.745 103.959 205.745 96.4045C205.745 88.8496 199.621 82.7251 192.066 82.7251C184.511 82.7251 178.386 88.8496 178.386 96.4045C178.386 103.959 184.511 110.084 192.066 110.084Z" fill="url(#paint1_linear_223_1078)"/>
<path d="M184.661 101.075C184.221 100.931 183.817 100.693 183.477 100.38C183.251 100.156 183.077 99.8851 182.967 99.5867C182.856 99.2884 182.813 98.9696 182.839 98.6526C182.853 98.4268 182.92 98.2073 183.033 98.0114C183.146 97.8155 183.303 97.6483 183.491 97.5231C183.981 97.2093 184.635 97.2084 185.301 97.502L185.276 92.1617L185.812 92.1592L185.842 98.4372L185.428 98.1772C184.949 97.8762 184.265 97.6643 183.781 97.9747C183.661 98.0567 183.562 98.1651 183.492 98.2916C183.421 98.4181 183.38 98.5592 183.373 98.7039C183.355 98.94 183.388 99.1773 183.47 99.3995C183.551 99.6217 183.68 99.8237 183.847 99.9917C184.439 100.557 185.304 100.734 186.289 100.893L186.204 101.422C185.681 101.353 185.164 101.237 184.661 101.075Z" fill="#2F2E41"/>
<path d="M179.746 91.8926L179.676 92.4243L182.54 92.8026L182.611 92.2708L179.746 91.8926Z" fill="#2F2E41"/>
<path d="M188.787 93.0854L188.717 93.6172L191.581 93.9955L191.651 93.4637L188.787 93.0854Z" fill="#2F2E41"/>
<path d="M200.986 155.114H180.421C179.912 155.113 179.417 154.942 179.016 154.628C178.615 154.314 178.33 153.875 178.208 153.381C178.146 153.11 178.136 152.83 178.178 152.555C178.178 152.555 182.195 129.997 184.182 119.164C184.471 117.584 185.306 116.157 186.539 115.129C187.773 114.102 189.327 113.539 190.933 113.539H190.933C194.867 113.539 198.641 115.102 201.423 117.884C204.205 120.667 205.768 124.44 205.768 128.375V150.332C205.768 150.96 205.644 151.581 205.404 152.162C205.164 152.742 204.811 153.269 204.367 153.713C203.923 154.157 203.396 154.509 202.816 154.75C202.236 154.99 201.614 155.114 200.986 155.114Z" fill="#2F2E41"/>
<path d="M197.02 152.133C196.87 152.434 196.636 152.686 196.346 152.857C196.056 153.028 195.723 153.111 195.386 153.098L191.431 152.931C191.202 152.921 190.978 152.867 190.77 152.77C190.562 152.674 190.376 152.537 190.221 152.369C190.066 152.2 189.946 152.003 189.867 151.788C189.788 151.573 189.753 151.344 189.763 151.116L191.068 120.127C191.088 119.639 191.205 119.159 191.411 118.716C191.617 118.273 191.908 117.874 192.268 117.543C192.628 117.212 193.05 116.956 193.509 116.788C193.968 116.62 194.456 116.544 194.944 116.565C195.433 116.585 195.912 116.702 196.355 116.908C196.799 117.114 197.197 117.405 197.528 117.765C197.859 118.125 198.116 118.546 198.284 119.005C198.452 119.465 198.527 119.952 198.507 120.441L197.202 151.429C197.192 151.674 197.13 151.914 197.02 152.133Z" fill="url(#paint2_linear_223_1078)"/>
<path d="M199.045 143.917C198.894 144.218 198.66 144.469 198.37 144.64C198.08 144.811 197.747 144.895 197.411 144.881L190.655 144.597C190.193 144.577 189.758 144.374 189.445 144.034C189.133 143.694 188.968 143.243 188.986 142.781L190.058 117.336C190.068 117.107 190.123 116.882 190.219 116.675C190.315 116.467 190.452 116.28 190.62 116.125C190.789 115.97 190.986 115.85 191.201 115.772C191.416 115.693 191.645 115.657 191.874 115.667L198.63 115.952C198.858 115.961 199.083 116.016 199.291 116.112C199.498 116.209 199.685 116.345 199.84 116.514C199.995 116.682 200.115 116.88 200.194 117.095C200.272 117.31 200.308 117.538 200.298 117.767L199.226 143.213C199.216 143.458 199.154 143.698 199.045 143.917Z" fill="#2F2E41"/>
<path d="M191.306 87.5191C188.355 88.6827 183.896 89.9196 181.951 86.465C181.572 85.7589 181.347 84.9801 181.291 84.1803C181.236 83.3806 181.352 82.5782 181.631 81.8267C182.218 80.1968 183.468 78.8541 184.893 77.9053C187.561 76.128 190.936 75.6441 194.043 76.3311C195.606 76.6712 197.088 77.3083 198.41 78.2078C199.913 79.2381 200.972 80.629 202.035 82.0846C203.123 83.5727 204.354 85.0736 206.141 85.7256C207.602 86.2586 209.434 85.9865 210.468 84.7462C210.709 84.4565 210.895 84.1244 211.014 83.7668C211.169 83.311 210.448 83.1153 210.294 83.5683C209.751 85.1646 207.751 85.5224 206.34 85.0056C204.476 84.3235 203.299 82.5513 202.181 81.0214C201.112 79.5587 199.931 78.271 198.387 77.3008C197 76.4351 195.464 75.8353 193.857 75.5321C190.622 74.9167 187.138 75.4621 184.397 77.3413C182.886 78.3306 181.702 79.7453 180.995 81.4069C180.367 82.979 180.383 84.7351 181.04 86.2955C181.369 87.0731 181.884 87.7585 182.539 88.2921C183.193 88.8257 183.969 89.1914 184.797 89.3574C186.604 89.7237 188.482 89.3022 190.198 88.7214C190.638 88.5726 191.072 88.4093 191.504 88.239C191.946 88.0648 191.753 87.3425 191.306 87.5191V87.5191Z" fill="#2F2E41"/>
<path d="M11.9766 0H105.629C108.804 0.00357536 111.848 1.26654 114.093 3.51182C116.339 5.75709 117.602 8.80131 117.605 11.9766V63.2116C117.602 66.3869 116.339 69.4311 114.093 71.6764C111.848 73.9217 108.804 75.1846 105.629 75.1882H11.9766C8.80128 75.1846 5.75706 73.9217 3.5118 71.6764C1.26653 69.4311 0.00356811 66.3869 0 63.2116V11.9766C0.00356745 8.80131 1.26653 5.75709 3.5118 3.51182C5.75706 1.26654 8.80128 0.00357536 11.9766 0Z" fill="#F2F2F2"/>
<path d="M11.9764 3.44775H105.629C107.89 3.45029 110.058 4.34967 111.657 5.94858C113.255 7.54749 114.155 9.71535 114.157 11.9765V63.2116C114.155 65.4728 113.255 67.6406 111.657 69.2395C110.058 70.8385 107.89 71.7378 105.629 71.7404H11.9764C9.71526 71.7378 7.54743 70.8384 5.94854 69.2395C4.34966 67.6406 3.45029 65.4728 3.44775 63.2116V11.9765C3.45029 9.71537 4.34965 7.54752 5.94854 5.94861C7.54743 4.34971 9.71526 3.45031 11.9764 3.44775Z" fill="white"/>
<path d="M12.8904 93.532C12.6078 93.5312 12.3281 93.4747 12.0674 93.3656C11.6783 93.2092 11.3454 92.939 11.1124 92.5903C10.8795 92.2416 10.7572 91.8307 10.7616 91.4114V73.6997L34.3744 72.9053L14.3727 92.9071C14.1793 93.1042 13.9486 93.2609 13.6942 93.3682C13.4397 93.4755 13.1665 93.5312 12.8904 93.532Z" fill="#F2F2F2"/>
<path d="M93.8993 16.1917H23.4777C20.6582 16.1917 18.3726 18.4773 18.3726 21.2968V21.2968C18.3726 24.1163 20.6582 26.4019 23.4777 26.4019H93.8993C96.7188 26.4019 99.0044 24.1163 99.0044 21.2968C99.0044 18.4773 96.7188 16.1917 93.8993 16.1917Z" fill="#F2F2F2"/>
<path d="M94.0134 32.489H23.5918C20.7723 32.489 18.4867 34.7747 18.4867 37.5941V37.5942C18.4867 40.4136 20.7723 42.6993 23.5918 42.6993H94.0134C96.8329 42.6993 99.1186 40.4136 99.1186 37.5941C99.1186 34.7747 96.8329 32.489 94.0134 32.489Z" fill="#F2F2F2"/>
<path d="M94.1275 48.7861H23.7058C20.8864 48.7861 18.6007 51.0718 18.6007 53.8913V53.8913C18.6007 56.7108 20.8864 58.9964 23.7058 58.9964H94.1275C96.9469 58.9964 99.2326 56.7108 99.2326 53.8913C99.2326 51.0718 96.9469 48.7861 94.1275 48.7861Z" fill="#F2F2F2"/>
<path d="M159.86 26.1306H66.2083C63.033 26.1342 59.9887 27.3972 57.7435 29.6424C55.4982 31.8877 54.2353 34.9319 54.2317 38.1072V89.3422C54.2353 92.5175 55.4982 95.5618 57.7435 97.807C59.9887 100.052 63.033 101.315 66.2083 101.319H159.86C163.036 101.315 166.08 100.052 168.325 97.807C170.57 95.5618 171.833 92.5175 171.837 89.3422V38.1072C171.833 34.9319 170.57 31.8877 168.325 29.6424C166.08 27.3972 163.036 26.1342 159.86 26.1306Z" fill="#E6E6E6"/>
<path d="M159.86 29.5784H66.2083C63.9471 29.5809 61.7792 30.4803 60.1803 32.0792C58.5814 33.6781 57.682 35.846 57.6794 38.1072V89.3422C57.682 91.6034 58.5814 93.7713 60.1803 95.3702C61.7792 96.9691 63.9471 97.8684 66.2083 97.871H159.86C162.122 97.8684 164.289 96.969 165.888 95.3701C167.487 93.7712 168.387 91.6034 168.389 89.3422V38.1072C168.387 35.846 167.487 33.6781 165.888 32.0792C164.289 30.4803 162.122 29.5809 159.86 29.5784Z" fill="white"/>
<path d="M152.736 119.038L132.734 99.0359L156.347 99.8304V117.542C156.351 117.961 156.229 118.372 155.996 118.721C155.763 119.07 155.43 119.34 155.041 119.496C154.78 119.605 154.501 119.662 154.218 119.663C153.942 119.662 153.669 119.606 153.414 119.499C153.16 119.392 152.929 119.235 152.736 119.038Z" fill="#E6E6E6"/>
<path d="M92.3785 70.1951C95.9521 70.1951 98.849 67.2981 98.849 63.7246C98.849 60.1511 95.9521 57.2542 92.3785 57.2542C88.805 57.2542 85.9081 60.1511 85.9081 63.7246C85.9081 67.2981 88.805 70.1951 92.3785 70.1951Z" fill="url(#paint3_linear_223_1078)"/>
<path d="M113.034 70.1951C116.608 70.1951 119.505 67.2981 119.505 63.7246C119.505 60.1511 116.608 57.2542 113.034 57.2542C109.461 57.2542 106.564 60.1511 106.564 63.7246C106.564 67.2981 109.461 70.1951 113.034 70.1951Z" fill="url(#paint4_linear_223_1078)"/>
<path d="M133.69 70.1951C137.263 70.1951 140.16 67.2981 140.16 63.7246C140.16 60.1511 137.263 57.2542 133.69 57.2542C130.116 57.2542 127.219 60.1511 127.219 63.7246C127.219 67.2981 130.116 70.1951 133.69 70.1951Z" fill="url(#paint5_linear_223_1078)"/>
</g>
<defs>
<linearGradient id="paint0_linear_223_1078" x1="178.426" y1="116.632" x2="178.426" y2="158.612" gradientUnits="userSpaceOnUse">
<stop offset="0.0001" stop-color="#0075FF"/>
<stop offset="1" stop-color="white"/>
</linearGradient>
<linearGradient id="paint1_linear_223_1078" x1="192.066" y1="82.7251" x2="192.066" y2="204.023" gradientUnits="userSpaceOnUse">
<stop offset="0.0001" stop-color="#0075FF"/>
<stop offset="1" stop-color="white"/>
</linearGradient>
<linearGradient id="paint2_linear_223_1078" x1="194.136" y1="116.561" x2="194.136" y2="278.556" gradientUnits="userSpaceOnUse">
<stop offset="0.0001" stop-color="#0075FF"/>
<stop offset="1" stop-color="white"/>
</linearGradient>
<linearGradient id="paint3_linear_223_1078" x1="92.3785" y1="57.2542" x2="92.3785" y2="114.629" gradientUnits="userSpaceOnUse">
<stop offset="0.0001" stop-color="#0075FF"/>
<stop offset="1" stop-color="white"/>
</linearGradient>
<linearGradient id="paint4_linear_223_1078" x1="113.034" y1="57.2542" x2="113.034" y2="114.629" gradientUnits="userSpaceOnUse">
<stop offset="0.0001" stop-color="#0075FF"/>
<stop offset="1" stop-color="white"/>
</linearGradient>
<linearGradient id="paint5_linear_223_1078" x1="133.69" y1="57.2542" x2="133.69" y2="114.629" gradientUnits="userSpaceOnUse">
<stop offset="0.0001" stop-color="#0075FF"/>
<stop offset="1" stop-color="white"/>
</linearGradient>
<clipPath id="clip0_223_1078">
<rect width="211.036" height="181" fill="white"/>
</clipPath>
</defs>
</svg>
